<svg xmlns="http://www.w3.org/2000/svg" viewBox="0 0 170.12 75.83"><g id="Layer_2" data-name="Layer 2"><g id="Layer_1-2" data-name="Layer 1"><path d="M92,13.23c-1.89,1.21-1.13,2.17-.08,3.15l10.4,9.81A18.17,18.17,0,0,0,104.86,23c.26-.53-.31-1.57-.68-2.28-2.09-4-4.29-7.89-6.33-11.89A9.08,9.08,0,0,1,97,2.45C97.5.51,98.4-.18,100.38,0A13.45,13.45,0,0,1,110,5.59c2,2.62,1.84,5.55.91,8.47a41.82,41.82,0,0,1-2.37,6,3,3,0,0,0,.27,3.58c.64.87,1.16,1.84,1.72,2.72.83-1.67,1.28-3.47,2.4-4.59,1.47-1.46,3.25-.27,4.91.63.36-.7.66-1.27.94-1.86,1.19-2.42,3.76-3.08,5.76-1.33a11.65,11.65,0,0,1,3.69,7.81c.09.8,0,1.76-1.07,1.68-.38,0-.8-.89-1-1.45-.76-1.83-1.31-3.76-2.23-5.5a2.85,2.85,0,0,0-2.23-1.22c-.47,0-1.24,1.25-1.26,1.95a14.19,14.19,0,0,0,.61,4c.23.85.38,1.6-.52,2s-1.34-.36-1.77-1.06a18.52,18.52,0,0,0-2.44-3.6c-1.48-1.46-2.89-1-3,1a34.86,34.86,0,0,0,.45,6.91c.24,1.71.91,3.35,1.18,5.05.08.51-.52,1.13-.8,1.69-.52-.33-1.27-.54-1.52-1a13.51,13.51,0,0,1-1.5-3.86c-.57-3.58-2.81-6.26-4.43-9.29-3,1.73-3.13,2.58-1.8,5.32A28.09,28.09,0,0,1,107.17,36c.91,4.22-2.13,8.89-6.27,10.08-2.84.81-5.64,1-8.25-.55-2.78,3.37-5.41,6.81-8.31,10s-6.1,6.17-9.21,9.19a5.68,5.68,0,0,1-4.54,1.87c1.84-1.55,3.43-2.68,4.75-4,4.44-4.64,9-9.2,13.06-14.14,1.5-1.81,2-4.54,2.61-7,.42-1.74-1.4-2.82-3.19-1.76A27.94,27.94,0,0,0,82.43,44a41.64,41.64,0,0,0-3.19,4.41,5.8,5.8,0,0,1-1.53,1.39,1.24,1.24,0,0,1-1.17,0,1.21,1.21,0,0,1-.27-1.12,7.42,7.42,0,0,1,1.09-1.75c1.63-2.11,3.29-4.2,4.93-6.28a14.93,14.93,0,0,0-10,4.6c-.89,1.08-.69,1.93-.42,3.08.63,2.69,1.1,5.41,1.53,8.14.07.42-.45.92-.7,1.39-.3-.38-.76-.71-.87-1.13-.41-1.6-.66-3.23-1.08-4.82a1.82,1.82,0,0,0-1-1c-.17-.07-.7.41-.91.73-.76,1.17-1.39,2.42-2.18,3.56-2.59,3.78-4.84,7.9-8,11.19-3.53,3.71-7.52,7.31-13.08,7.79-4.39.38-6.53-.91-5.95-6a13.46,13.46,0,0,1,3.56-7.33c6-6.9,13.77-11.27,21.88-15.15,2.47-1.19,2.47-1.31,1.09-3.62-1.7-2.82-3.39-5.64-5-8.5A17.71,17.71,0,0,1,60,30.75c-.51-1.44-.47-1.45,1-2.31L68.23,41a12.22,12.22,0,0,0,.63,1.13c.84,1.11,1.41,1,2-.27,1.32-3,2.57-6.07,4-9.05C76.07,30,77,30.05,79,33c-2.41-.31-3,1.45-3.69,3-.77,1.79-1.44,3.62-2.31,5.81,3-1,5.38-1.9,7.86-2.53,5.08-1.28,9.7-3.67,14.5-5.65,2.42-1,3.57-3.2,5.14-5,.21-.24,0-1.19-.34-1.53a40.71,40.71,0,0,0-3.8-3.51c-3.1-2.5-6.16-5-8.15-8.58-.46-.81-.91-2.23-.52-2.78.8-1.13,2-.25,3,.21C91,12.57,91.28,12.78,92,13.23ZM42.67,70.15c-.22,2.07.76,3.1,2.78,2.74a11.07,11.07,0,0,0,4.13-1.49c4.09-2.73,8.29-5.43,10.93-9.77s5-8.5,7.44-12.8c.32-.58.1-1.46.13-2.2a7.87,7.87,0,0,0-2.15.36c-2.56,1.26-5.07,2.63-7.61,4a39.91,39.91,0,0,0-15,12.92,3.47,3.47,0,0,0-.62,1.61C42.62,67,42.67,68.59,42.67,70.15Zm64.1-49.51c.94-2.21,1.56-3.86,2.34-5.44a9.07,9.07,0,0,0-6.28-12.91c-1.12-.24-2.69-.59-3.4,0-1.19.92-.65,2.59-.09,3.83,1.55,3.45,3.22,6.86,4.9,10.25C104.87,17.6,105.68,18.79,106.77,20.64ZM102,29.54c-3.43,3.61-6.35,7.15-7.38,11.9-.37,1.69-.06,2.38,1.61,2.45a16.61,16.61,0,0,0,4.09-.41,6.16,6.16,0,0,0,4.9-6.36A13.84,13.84,0,0,0,102,29.54Zm-9.75,9.34c.29-.39.62-.64.6-.86a.92.92,0,0,0-.58-.63c-.27,0-.57.25-.86.4Z"/><path d="M33.06,52.86c1-.48,2-.94,2.94-1.46a32,32,0,0,1,11.16-3.31,2.77,2.77,0,0,1,2.24.7c.7,1-.16,1.81-.94,2.36a36.86,36.86,0,0,1-4,2.47c-2,1.05-4,2-6,3a3.48,3.48,0,0,1-1.23.4,4.44,4.44,0,0,1-1.2-.28c.2-.43.28-1.08.61-1.25,2.23-1.13,4.5-2.19,6.79-3.22,1.55-.69,3.28-1.07,4.42-3-7.94.92-14.17,5-20.69,8.79a17.53,17.53,0,0,1,1.2,2,35.56,35.56,0,0,1,2.36,5.74c1.07,4.34-.84,8-5.12,9.1-6.18,1.54-12.49,1.6-18.18-1.75C1.3,69.47-2.82,58.89,2.35,52.16a39.32,39.32,0,0,1,3.27-4A38.18,38.18,0,0,1,23,38.43c3.17-.84,6.25-2,9.68-1.57,5.86.73,7.89,5.25,4.38,10.09-.65.9-1.49,1.68-2.19,2.56s-1.48,2-2.22,3Zm-11.7-3.75-.06-.06,5,7.67c1.7-1.59,3.44-2.75,4.55-4.35,1.93-2.79,5.43-4.42,5.57-8.64.12-3.57-.43-4.86-4.07-5.24-4.49-.47-8.5,1.12-12.48,2.83-.58.25-1,.88-1.57,1.43l.95,1c1.34,1.44,2.79,2.83,2,5.11C21.2,49,21.31,49,21.36,49.11ZM15,43.61a7.83,7.83,0,0,1-1.7,1.23,20.39,20.39,0,0,0-9.94,8.77,7.93,7.93,0,0,0-1.1,5.22,16.83,16.83,0,0,0,2.35,7.35c.56.87.39,2.31,1.06,3a13.22,13.22,0,0,0,6.85,4.31,28.27,28.27,0,0,0,12.35-.44c2.42-.55,3.86-1.88,4-4.38a7.41,7.41,0,0,0-.35-3.27,59.4,59.4,0,0,0-3.81-7.07C21.52,53.42,18.25,48.6,15,43.61Z"/><path d="M153.18,12.23l2.38,1.55a2.39,2.39,0,0,1-2.87.26,3,3,0,0,1-1.43-1.66c-.1-.42.56-1.27,1.08-1.55a13.62,13.62,0,0,1,3.84-1.52c2.94-.53,5.78-1.95,8.91-1.15.4.1,1-.61,1.4-.54a6.76,6.76,0,0,1,2.8.87,1.92,1.92,0,0,1,.44,2.78,11.41,11.41,0,0,1-1.84,2.8,128,128,0,0,1-19,14.32c-6.58,3.87-13,8.1-19.38,12.2-7.45,4.74-15.18,9-22.89,13.28-3,1.64-5.89,3.33-8.84,5-3.55,2-7.11,3.92-10.66,5.9a12.38,12.38,0,0,0-1.39,1l.17.54a23.48,23.48,0,0,0,3-.67c4.73-1.73,9.42-3.54,14.14-5.31,3.09-1.15,6.19-2.26,9.28-3.41.89-.33,1.72-.84,2.63-1.11,1.11-.33,2.26-.5,3.4-.74l.34.73a11.18,11.18,0,0,1-2.07,1.36c-5,1.85-10.13,3.62-15.18,5.45-4.56,1.65-9.09,3.38-13.66,5a21,21,0,0,1-4.32.89,1.93,1.93,0,0,1-1.47-.7c-.17-.21.08-1.08.4-1.32a49.35,49.35,0,0,1,5.86-4.25c5.88-3.31,11.88-6.42,17.82-9.64,4.49-2.44,9.19-4.6,13.37-7.49,4.84-3.34,10.21-5.7,15-9,4.27-3,8.9-5.39,13.25-8.25C151.91,25,156,22.1,160,19.08c2.55-1.91,4.86-4.12,7.27-6.21a5,5,0,0,0,.86-1c.68-1,.43-1.7-.75-1.81-3.37-.31-6.74-.48-10,.69C156.11,11.23,154.83,11.66,153.18,12.23Z"/><path d="M138,15.83c1.93-2.06,2.45-2.25,4.71-.78a15.87,15.87,0,0,1,3.44,3.36,21.38,21.38,0,0,1,2.88,4.8c-3-1.26-4.49-4.28-7.23-6.13-.76,1.75-1.24,3.26-.27,5a1.89,1.89,0,0,1-.35,1.74c-.53.5-1.26.37-1.7-.45-2-3.82-4.18-7.57-6-11.48a14.56,14.56,0,0,1-.86-5.05,3.9,3.9,0,0,1,.74-2.15c.77-1.17,1.54-1.15,2.52-.12a3.19,3.19,0,0,1,.33.4l1.34,1.9h-3A17.9,17.9,0,0,0,138,15.83Z"/><path d="M129.58,12.85c.11.41.24,1,.42,1.52,1.3,3.85,2.63,7.68,3.88,11.55.17.54.11,1.62-.16,1.75-1,.46-1.53-.24-1.87-1.17-1.7-4.63-3.44-9.25-5.14-13.88a3.27,3.27,0,0,1-.27-1.52c.07-.54.3-1.3.69-1.47a1.71,1.71,0,0,1,1.53.46C129.26,10.79,130.58,11.32,129.58,12.85Z"/><path d="M120.26,16.21c-2.58,1.49-4.58.05-6.59-1a1.69,1.69,0,0,1-.52-1.51c.09-.34.86-.58,1.36-.69a1.85,1.85,0,0,1,1.24.21C117.24,14.18,118.69,15.17,120.26,16.21Z"/><path d="M57.48,34.74A4.07,4.07,0,0,1,51.31,34C53.46,33.05,55.31,33.93,57.48,34.74Z"/></g></g></svg>