<svg xmlns="http://www.w3.org/2000/svg" viewBox="0 0 956.09 956.23"><g id="Layer_2" data-name="Layer 2"><g id="Layer_1-2" data-name="Layer 1"><path d="M0,115.4c0-19,0-37.94,0-56.91C.09,25.6,25.65.05,58.55,0q56.67,0,113.33,0c33.27,0,58.81,25.42,58.86,58.64q.1,56.91,0,113.83c-.05,32.19-25,57.82-57.28,58.16q-58.16.6-116.33,0c-32.34-.38-57-26-57.1-58.31C0,153.35,0,134.37,0,115.4ZM115.7,33c-13.14,0-26.28,0-39.42,0C50.79,33,33,50.78,33,76.26q-.09,39.18,0,78.36c.06,25.29,17.67,43,42.91,43.17q39.42.19,78.85,0c25.28-.11,43-17.82,43.08-43q.12-39.42,0-78.85c-.09-25.14-18-42.87-43.16-43C141.66,32.91,128.68,33,115.7,33Z"/><path d="M840.58,0C859.72,0,878.86,0,898,0a57.82,57.82,0,0,1,58,58q.16,57.17,0,114.33c0,32.47-25.06,58.08-57.61,58.35q-57.66.5-115.33,0c-32.77-.24-57.74-25.86-57.77-58.69q-.06-56.67,0-113.33c0-33.18,25.57-58.6,58.85-58.64Q812.37,0,840.58,0ZM840.82,33c-13.14,0-26.28-.05-39.43,0-25.18.1-43,17.85-43.13,43q-.12,39.42,0,78.86c.08,25,17.64,42.83,42.58,43q39.93.25,79.86,0c24.68-.19,42.29-18,42.39-42.68q.17-39.67,0-79.36c-.11-24.87-18-42.65-42.84-42.78C867.11,32.89,854,33,840.82,33Z"/><path d="M115.61,725.31c19,0,37.94,0,56.91,0,32.53.07,58.14,25.65,58.22,58.28q.12,56.92,0,113.83C230.7,930,205.86,955.64,173.32,956q-57.91.56-115.83,0C24.94,955.65.07,930,0,897.47Q0,840.8,0,784.14c0-33.27,25.49-58.78,58.66-58.83Q87.15,725.28,115.61,725.31ZM33,840.8c0,13.31-.09,26.62,0,39.93.21,24.18,17.54,42,41.72,42.3q40.68.5,81.36,0c24.18-.29,41.61-18.12,41.74-42.28q.22-39.93,0-79.86c-.12-24.82-18.06-42.56-43-42.63q-39.43-.12-78.86,0c-25.14.07-42.89,17.92-43,43.11C32.9,814.51,33,827.66,33,840.8Z"/><path d="M742.28,659.37c13.15,0,26.3-.06,39.45,0,24.29.14,42.27,17.91,42.41,42.21q.24,40.2,0,80.41c-.12,23.89-17.5,41.77-41.43,42.08q-41,.54-81.9,0c-23.92-.32-41.29-18.22-41.4-42.11q-.2-40.2,0-80.41c.12-24.24,18.11-42,42.42-42.18C715.31,659.31,728.79,659.37,742.28,659.37Zm-50,82c0,8.15-.09,16.31,0,24.46.18,14.6,10.63,25.19,25.22,25.34q24.21.24,48.42,0c14.58-.14,25.12-10.74,25.24-25.32q.21-24.21,0-48.43c-.13-14.25-10.72-24.93-25-25.1q-24.45-.29-48.91,0c-14.26.17-24.8,10.88-25,25.09C692.22,725.42,692.31,733.41,692.31,741.4Z"/><path d="M628.27,16.18c.09-8.47,6.43-14.46,15.14-14.29,8.17.15,14.15,6.49,14.06,14.89s-6.5,14.47-15.16,14.3C634.13,30.92,628.19,24.61,628.27,16.18Z"/><path d="M280.64,34.85c8.21.12,14.24,6.39,14.19,14.77s-6.41,14.56-15,14.43c-8.44-.13-14.38-6.53-14.17-15.27C265.82,40.65,272.19,34.73,280.64,34.85Z"/><path d="M364.53,49.19c.08-8.48,6.4-14.49,15.1-14.34,8.18.15,14.18,6.47,14.1,14.86s-6.47,14.49-15.12,14.34C370.41,63.9,364.46,57.62,364.53,49.19Z"/><path d="M412.45,34.85c8.22.1,14.28,6.36,14.25,14.71s-6.36,14.6-15,14.49c-8.44-.11-14.42-6.49-14.23-15.21C397.68,40.69,404,34.75,412.45,34.85Z"/><path d="M444.8,64.05c-8.49-.08-14.49-6.41-14.33-15.11.14-8.21,6.41-14.16,14.85-14.09S459.83,41.31,459.66,50C459.51,58.12,453.17,64.12,444.8,64.05Z"/><path d="M496.4,49.2c.08-8.49,6.4-14.5,15.1-14.35,8.18.14,14.18,6.46,14.1,14.85s-6.47,14.5-15.11,14.35C502.28,63.9,496.33,57.62,496.4,49.2Z"/><path d="M609.67,64.05C601.18,64,595.16,57.66,595.31,49c.13-8.22,6.39-14.18,14.81-14.12s14.54,6.44,14.38,15.08C624.36,58.1,618,64.12,609.67,64.05Z"/><path d="M675.63,64.05c-8.49-.06-14.53-6.37-14.39-15,.13-8.23,6.37-14.2,14.79-14.15s14.55,6.42,14.41,15C690.3,58.1,684,64.11,675.63,64.05Z"/><path d="M279.85,97c-8.44-.11-14.41-6.5-14.22-15.22.18-8.15,6.52-14.08,14.95-14S295,74.36,294.82,83C294.64,91.14,288.23,97.12,279.85,97Z"/><path d="M312.93,97c-8.48-.08-14.49-6.4-14.33-15.1.14-8.22,6.4-14.17,14.83-14.1S328,74.27,327.79,82.91C327.64,91.08,321.3,97.09,312.93,97Z"/><path d="M346.36,67.82a14.15,14.15,0,0,1,14.4,14.55c0,8.52-6.24,14.71-14.81,14.65s-14.52-6.37-14.39-15C331.69,73.73,337.94,67.77,346.36,67.82Z"/><path d="M379.32,67.82a14.16,14.16,0,0,1,14.41,14.55c0,8.52-6.24,14.71-14.81,14.65s-14.52-6.37-14.39-15C364.66,73.74,370.9,67.77,379.32,67.82Z"/><path d="M411.86,97c-8.48-.07-14.51-6.4-14.36-15.08.14-8.22,6.39-14.18,14.82-14.12s14.53,6.43,14.38,15.07C426.55,91.07,420.23,97.08,411.86,97Z"/><path d="M463.43,82.21c.06-8.49,6.37-14.52,15.05-14.39,8.2.13,14.22,6.43,14.15,14.81S486.2,97.16,477.56,97C469.34,96.88,463.37,90.63,463.43,82.21Z"/><path d="M511.39,67.82c8.22.11,14.26,6.38,14.21,14.75s-6.39,14.57-15,14.45c-8.43-.12-14.39-6.53-14.19-15.25C496.59,73.62,503,67.71,511.39,67.82Z"/><path d="M576.61,97c-8.46-.1-14.44-6.45-14.27-15.16.16-8.18,6.47-14.13,14.9-14S591.72,74.31,591.53,83C591.36,91.12,585,97.11,576.61,97Z"/><path d="M642.56,97c-8.47-.1-14.46-6.45-14.29-15.16.16-8.18,6.47-14.12,14.9-14s14.48,6.49,14.3,15.15C657.3,91.12,650.94,97.11,642.56,97Z"/><path d="M313.51,100.79c8.23.09,14.31,6.32,14.28,14.66s-6.33,14.63-14.93,14.53-14.44-6.45-14.26-15.16C298.76,106.64,305.08,100.7,313.51,100.79Z"/><path d="M331.56,115.2c.06-8.5,6.35-14.54,15-14.41,8.21.12,14.24,6.4,14.18,14.78s-6.41,14.55-15,14.41C337.49,129.86,331.51,123.62,331.56,115.2Z"/><path d="M378.77,130c-8.45-.1-14.42-6.48-14.24-15.2.18-8.15,6.52-14.09,14.94-14s14.45,6.53,14.26,15.19C393.54,124.1,387.15,130.09,378.77,130Z"/><path d="M477.79,130c-8.48-.07-14.5-6.39-14.35-15.07.13-8.23,6.39-14.18,14.81-14.12s14.54,6.43,14.38,15.07C492.49,124,486.17,130.05,477.79,130Z"/><path d="M544.34,100.79c8.21.1,14.27,6.37,14.23,14.72s-6.38,14.59-15,14.47c-8.44-.11-14.4-6.5-14.21-15.22C529.55,106.61,535.9,100.68,544.34,100.79Z"/><path d="M642.56,130c-8.47-.09-14.46-6.44-14.29-15.15.16-8.18,6.47-14.13,14.9-14s14.48,6.49,14.3,15.15C657.3,124.08,650.94,130.07,642.56,130Z"/><path d="M280.08,163c-8.52,0-14.57-6.32-14.45-15,.11-8.25,6.32-14.25,14.72-14.21s14.6,6.36,14.48,15C294.71,157,288.44,163,280.08,163Z"/><path d="M445.27,133.76a14.15,14.15,0,0,1,14.4,14.55c0,8.52-6.25,14.7-14.83,14.64s-14.51-6.38-14.37-15.06C430.6,139.66,436.85,133.7,445.27,133.76Z"/><path d="M463.43,148c.1-8.46,6.46-14.44,15.17-14.26,8.17.16,14.13,6.51,14,14.92s-6.52,14.45-15.18,14.27C469.29,162.78,463.34,156.45,463.43,148Z"/><path d="M544.09,133.76a14.6,14.6,0,1,1-.26,29.19c-8.52,0-14.57-6.31-14.46-15C529.48,139.72,535.69,133.72,544.09,133.76Z"/><path d="M562.34,148c.1-8.45,6.47-14.42,15.19-14.24,8.15.17,14.11,6.53,14,14.94S585,163.14,576.33,163C568.17,162.77,562.24,156.43,562.34,148Z"/><path d="M609.72,163c-8.5,0-14.54-6.34-14.41-15,.12-8.24,6.34-14.22,14.76-14.17s14.57,6.39,14.43,15C624.37,157,618.09,163,609.72,163Z"/><path d="M280.43,166.72a14.16,14.16,0,0,1,14.4,14.56c0,8.52-6.26,14.7-14.83,14.64s-14.51-6.38-14.37-15.06C265.76,172.63,272,166.67,280.43,166.72Z"/><path d="M313.46,166.72a14.16,14.16,0,0,1,14.33,14.62c0,8.5-6.29,14.66-14.88,14.58s-14.47-6.42-14.31-15.12C298.75,172.6,305,166.65,313.46,166.72Z"/><path d="M378.92,195.92c-8.49-.06-14.53-6.37-14.39-15,.13-8.23,6.37-14.2,14.79-14.15s14.55,6.42,14.41,15.05C393.59,190,387.29,196,378.92,195.92Z"/><path d="M445.1,166.72a14.15,14.15,0,0,1,14.56,14.39c.07,8.56-6.12,14.82-14.65,14.81s-14.63-6.26-14.54-14.89C430.55,172.76,436.73,166.71,445.1,166.72Z"/><path d="M511.2,166.72a14.16,14.16,0,0,1,14.4,14.55c0,8.52-6.24,14.71-14.81,14.65s-14.52-6.37-14.39-15C496.53,172.64,502.77,166.67,511.2,166.72Z"/><path d="M544,166.72a14.16,14.16,0,0,1,14.6,14.36c.07,8.57-6.11,14.85-14.62,14.84s-14.66-6.24-14.58-14.86C529.44,172.78,535.62,166.72,544,166.72Z"/><path d="M562.34,181.06c.07-8.48,6.4-14.49,15.1-14.34,8.18.15,14.18,6.47,14.1,14.86s-6.47,14.5-15.12,14.34C568.21,195.77,562.26,189.49,562.34,181.06Z"/><path d="M609.75,195.92c-8.51,0-14.56-6.32-14.44-15,.11-8.25,6.32-14.24,14.72-14.21s14.6,6.37,14.47,15C624.38,189.92,618.11,196,609.75,195.92Z"/><path d="M657.47,181.13c.06,8.37-6,14.67-14.17,14.79-8.68.13-15-5.91-15-14.42s6.09-14.79,14.66-14.78A14.16,14.16,0,0,1,657.47,181.13Z"/><path d="M675.57,195.92c-8.48-.08-14.48-6.41-14.33-15.11.15-8.21,6.42-14.16,14.85-14.09s14.51,6.46,14.35,15.11C690.28,190,683.94,196,675.57,195.92Z"/><path d="M279.93,228.89c-8.47-.09-14.46-6.43-14.3-15.13.15-8.2,6.44-14.15,14.87-14.07s14.5,6.47,14.32,15.13C294.66,223,288.31,229,279.93,228.89Z"/><path d="M345.87,228.89c-8.48-.09-14.47-6.43-14.31-15.13.16-8.2,6.45-14.15,14.88-14.07s14.49,6.47,14.32,15.13C360.6,223,354.24,229,345.87,228.89Z"/><path d="M411.8,228.89c-8.47-.09-14.46-6.43-14.3-15.13.15-8.2,6.44-14.15,14.87-14.07s14.5,6.47,14.33,15.13C426.53,223,420.18,229,411.8,228.89Z"/><path d="M477.73,228.89c-8.47-.09-14.46-6.44-14.29-15.15.15-8.19,6.45-14.13,14.88-14.05s14.49,6.48,14.31,15.14C492.46,223,486.1,229,477.73,228.89Z"/><path d="M543.71,228.89c-8.48-.08-14.49-6.4-14.34-15.1.14-8.21,6.41-14.17,14.84-14.1s14.52,6.45,14.36,15.1C558.41,223,552.08,229,543.71,228.89Z"/><path d="M609.74,228.89c-8.51,0-14.55-6.33-14.43-15,.11-8.25,6.33-14.24,14.74-14.2s14.58,6.38,14.45,15C624.38,222.9,618.11,228.93,609.74,228.89Z"/><path d="M675.59,228.89c-8.49-.08-14.5-6.4-14.35-15.09.14-8.22,6.4-14.17,14.83-14.11s14.53,6.44,14.37,15.09C690.29,222.94,684,229,675.59,228.89Z"/><path d="M265.63,247c.07-8.48,6.4-14.49,15.09-14.34,8.18.14,14.18,6.46,14.11,14.85s-6.47,14.5-15.12,14.34C271.51,261.71,265.55,255.43,265.63,247Z"/><path d="M313.4,232.66a14.15,14.15,0,0,1,14.39,14.56c0,8.51-6.24,14.7-14.82,14.63s-14.51-6.37-14.37-15.05C298.73,238.57,305,232.6,313.4,232.66Z"/><path d="M411.79,261.85c-8.47-.09-14.46-6.44-14.29-15.14.16-8.19,6.46-14.13,14.89-14.05s14.48,6.48,14.31,15.14C426.53,256,420.16,261.94,411.79,261.85Z"/><path d="M463.43,247c.09-8.48,6.42-14.48,15.12-14.32,8.18.15,14.17,6.48,14.08,14.87s-6.48,14.49-15.14,14.32C469.3,261.7,463.35,255.4,463.43,247Z"/><path d="M496.4,247.07c.05-8.5,6.35-14.54,15-14.41,8.21.12,14.23,6.4,14.18,14.78s-6.41,14.55-15,14.41C502.32,261.73,496.35,255.49,496.4,247.07Z"/><path d="M577.13,232.66a14.16,14.16,0,0,1,14.41,14.55c0,8.52-6.25,14.71-14.82,14.64s-14.52-6.36-14.38-15.05C562.47,238.57,568.71,232.6,577.13,232.66Z"/><path d="M657.47,247.26a14.18,14.18,0,0,1-14.36,14.59c-8.62.07-14.84-6-14.84-14.6s6.22-14.66,14.84-14.59A14.16,14.16,0,0,1,657.47,247.26Z"/><path d="M661.24,247c.06-8.49,6.38-14.52,15.06-14.38,8.19.13,14.21,6.44,14.14,14.81S684,262,675.36,261.85C667.14,261.72,661.18,255.46,661.24,247Z"/><path d="M16.51,265.63A14.15,14.15,0,0,1,31.08,280c.07,8.57-6.12,14.83-14.65,14.81S1.8,288.57,1.89,279.94C2,271.66,8.15,265.62,16.51,265.63Z"/><path d="M49.21,294.82c-8.48-.07-14.5-6.39-14.36-15.07.14-8.23,6.4-14.18,14.82-14.12s14.54,6.43,14.38,15.07C63.9,288.88,57.59,294.89,49.21,294.82Z"/><path d="M115.15,294.82c-8.48-.07-14.51-6.39-14.36-15.07.14-8.23,6.39-14.18,14.82-14.12s14.53,6.43,14.38,15.07C129.84,288.88,123.52,294.89,115.15,294.82Z"/><path d="M214.14,294.82c-8.51,0-14.56-6.31-14.45-15,.11-8.25,6.33-14.25,14.73-14.21s14.59,6.36,14.47,15C228.77,288.82,222.5,294.86,214.14,294.82Z"/><path d="M247.11,294.82c-8.51,0-14.57-6.31-14.45-15,.11-8.25,6.33-14.25,14.73-14.21s14.59,6.36,14.47,15C261.74,288.82,255.47,294.86,247.11,294.82Z"/><path d="M346,294.82c-8.52,0-14.57-6.31-14.46-15,.11-8.25,6.33-14.25,14.73-14.21s14.59,6.36,14.47,15C360.64,288.82,354.37,294.86,346,294.82Z"/><path d="M412,294.82c-8.51,0-14.57-6.31-14.45-15,.11-8.25,6.32-14.25,14.73-14.21s14.59,6.36,14.47,15C426.58,288.82,420.31,294.86,412,294.82Z"/><path d="M444.78,294.82c-8.48-.08-14.47-6.42-14.31-15.12.15-8.2,6.43-14.15,14.86-14.07s14.5,6.46,14.33,15.12C459.5,288.9,453.15,294.9,444.78,294.82Z"/><path d="M477.75,294.82c-8.48-.08-14.47-6.42-14.31-15.12.15-8.2,6.43-14.15,14.86-14.07s14.5,6.46,14.33,15.12C492.47,288.9,486.12,294.9,477.75,294.82Z"/><path d="M543.68,294.82c-8.47-.08-14.47-6.42-14.31-15.12.15-8.2,6.43-14.15,14.86-14.07s14.51,6.46,14.34,15.12C558.41,288.9,552.06,294.9,543.68,294.82Z"/><path d="M628.27,280c.08-8.48,6.4-14.48,15.1-14.33,8.18.14,14.18,6.46,14.1,14.85S651,295,642.35,294.82C634.15,294.67,628.2,288.39,628.27,280Z"/><path d="M741.47,294.82c-8.47-.09-14.46-6.44-14.29-15.14.16-8.19,6.45-14.14,14.88-14.05s14.49,6.48,14.31,15.14C756.21,288.91,749.84,294.91,741.47,294.82Z"/><path d="M760.14,280c.08-8.48,6.4-14.49,15.1-14.34,8.18.14,14.18,6.46,14.1,14.85s-6.46,14.5-15.11,14.34C766,294.67,760.07,288.4,760.14,280Z"/><path d="M807.33,294.82c-8.44-.11-14.41-6.5-14.22-15.22.18-8.15,6.53-14.08,15-14s14.43,6.54,14.23,15.22C822.12,289,815.71,294.93,807.33,294.82Z"/><path d="M873.48,294.82c-8.51-.05-14.56-6.33-14.43-15,.12-8.25,6.34-14.24,14.75-14.19s14.58,6.38,14.45,15C888.12,288.84,881.84,294.87,873.48,294.82Z"/><path d="M906.37,294.82c-8.48-.07-14.5-6.39-14.35-15.07.13-8.23,6.39-14.18,14.81-14.12s14.54,6.43,14.38,15.07C921.07,288.88,914.75,294.89,906.37,294.82Z"/><path d="M148.59,298.6A14.15,14.15,0,0,1,163,313.18c0,8.51-6.28,14.68-14.86,14.61s-14.49-6.4-14.34-15.09C133.9,304.48,140.16,298.53,148.59,298.6Z"/><path d="M280.08,327.79c-8.52,0-14.57-6.32-14.45-15,.11-8.26,6.32-14.25,14.72-14.22s14.6,6.37,14.48,15C294.71,321.79,288.44,327.83,280.08,327.79Z"/><path d="M345.75,327.79c-8.43-.12-14.39-6.52-14.19-15.25.19-8.14,6.55-14.06,15-13.94s14.42,6.56,14.21,15.24C360.56,321.93,354.13,327.91,345.75,327.79Z"/><path d="M379.13,298.59A14.16,14.16,0,0,1,393.73,313c.08,8.57-6.11,14.85-14.62,14.84s-14.65-6.23-14.58-14.85C364.6,304.66,370.78,298.6,379.13,298.59Z"/><path d="M430.47,313c.06-8.48,6.37-14.51,15.06-14.37,8.18.13,14.2,6.43,14.13,14.81s-6.44,14.52-15.07,14.38C436.37,327.65,430.4,321.4,430.47,313Z"/><path d="M478.24,298.6a14.14,14.14,0,0,1,14.39,14.56c0,8.51-6.25,14.69-14.82,14.63s-14.52-6.38-14.37-15.06C463.57,304.5,469.82,298.54,478.24,298.6Z"/><path d="M543.87,327.79c-8.53,0-14.6-6.29-14.5-14.94.1-8.26,6.3-14.28,14.68-14.26s14.63,6.33,14.52,14.94C558.46,321.75,552.21,327.82,543.87,327.79Z"/><path d="M708.5,327.79c-8.47-.09-14.46-6.44-14.29-15.15.16-8.18,6.46-14.13,14.89-14s14.48,6.48,14.31,15.14C723.24,321.88,716.88,327.88,708.5,327.79Z"/><path d="M741.39,327.79c-8.44-.11-14.4-6.5-14.21-15.22.18-8.15,6.53-14.08,15-14s14.44,6.54,14.23,15.21C756.18,321.92,749.77,327.9,741.39,327.79Z"/><path d="M826.08,313c0-8.5,6.35-14.53,15-14.4,8.2.12,14.23,6.4,14.17,14.78s-6.42,14.54-15,14.41C832,327.66,826,321.42,826.08,313Z"/><path d="M939.21,327.79c-8.44-.11-14.42-6.5-14.23-15.21.18-8.15,6.53-14.09,15-14s14.44,6.53,14.24,15.2C954,321.91,947.59,327.9,939.21,327.79Z"/><path d="M16.25,360.76c-8.48-.07-14.51-6.39-14.36-15.07C2,337.47,8.27,331.5,16.7,331.56S31.23,338,31.08,346.63C30.94,354.81,24.63,360.82,16.25,360.76Z"/><path d="M82.11,360.76c-8.47-.09-14.46-6.44-14.29-15.15.16-8.19,6.46-14.13,14.89-14.05S97.2,338.05,97,346.71C96.85,354.85,90.49,360.85,82.11,360.76Z"/><path d="M100.79,345.92c.07-8.48,6.39-14.5,15.08-14.36,8.18.14,14.19,6.45,14.12,14.84s-6.46,14.51-15.1,14.36C106.67,360.61,100.72,354.35,100.79,345.92Z"/><path d="M148.72,331.56c8.22.11,14.27,6.37,14.23,14.72s-6.37,14.59-15,14.48c-8.44-.12-14.41-6.51-14.21-15.23C133.94,337.39,140.29,331.46,148.72,331.56Z"/><path d="M166.72,346c.06-8.5,6.35-14.53,15-14.41,8.2.12,14.23,6.41,14.17,14.78s-6.41,14.55-15,14.42C172.64,360.63,166.67,354.39,166.72,346Z"/><path d="M214.48,331.56a14.16,14.16,0,0,1,14.41,14.55c0,8.52-6.24,14.71-14.81,14.65s-14.52-6.37-14.39-15.05C199.82,337.48,206.06,331.51,214.48,331.56Z"/><path d="M265.63,345.93c.06-8.48,6.38-14.51,15.06-14.37,8.19.14,14.2,6.44,14.14,14.82s-6.45,14.52-15.09,14.38C271.52,360.62,265.56,354.36,265.63,345.93Z"/><path d="M313.09,360.76c-8.53,0-14.6-6.29-14.49-14.94.09-8.26,6.29-14.28,14.68-14.26s14.62,6.33,14.51,14.94C327.69,354.72,321.43,360.79,313.09,360.76Z"/><path d="M345.85,360.76c-8.47-.09-14.45-6.44-14.29-15.15.16-8.19,6.46-14.13,14.89-14.05s14.49,6.49,14.31,15.15C360.59,354.85,354.23,360.85,345.85,360.76Z"/><path d="M477.74,360.76c-8.48-.09-14.47-6.43-14.3-15.13.15-8.2,6.44-14.15,14.87-14.07s14.49,6.47,14.32,15.13C492.47,354.84,486.11,360.84,477.74,360.76Z"/><path d="M529.37,345.94c.06-8.49,6.38-14.51,15.06-14.38,8.19.13,14.2,6.44,14.14,14.82s-6.44,14.52-15.08,14.38C535.27,360.62,529.31,354.36,529.37,345.94Z"/><path d="M595.31,345.88c.08-8.48,6.41-14.47,15.11-14.32,8.18.15,14.17,6.48,14.08,14.88s-6.48,14.48-15.14,14.32C601.17,360.6,595.22,354.3,595.31,345.88Z"/><path d="M642.69,360.76c-8.5-.05-14.54-6.35-14.42-15,.12-8.24,6.35-14.22,14.76-14.18s14.58,6.39,14.44,15C657.34,354.78,651.06,360.81,642.69,360.76Z"/><path d="M708.51,360.76c-8.47-.09-14.47-6.43-14.3-15.14.16-8.19,6.45-14.14,14.88-14.06s14.49,6.48,14.32,15.14C723.24,354.84,716.88,360.84,708.51,360.76Z"/><path d="M741.61,360.76c-8.51-.05-14.56-6.34-14.43-15,.11-8.24,6.34-14.23,14.75-14.19s14.58,6.39,14.44,15C756.25,354.77,750,360.81,741.61,360.76Z"/><path d="M774.92,360.76c-8.6.05-14.79-6.09-14.78-14.66a14.13,14.13,0,0,1,14.4-14.54c8.6-.05,14.82,6.1,14.8,14.66A14.17,14.17,0,0,1,774.92,360.76Z"/><path d="M793.11,345.81c.11-8.45,6.48-14.43,15.19-14.25,8.16.17,14.12,6.53,14,14.95s-6.54,14.43-15.21,14.25C799,360.58,793,354.24,793.11,345.81Z"/><path d="M840.87,331.56a14.17,14.17,0,0,1,14.41,14.55c0,8.52-6.24,14.71-14.81,14.65s-14.53-6.37-14.39-15.05C826.21,337.48,832.45,331.51,840.87,331.56Z"/><path d="M888.25,346.16a14.2,14.2,0,0,1-14.37,14.6c-8.62.07-14.83-6.05-14.83-14.6s6.22-14.67,14.84-14.6A14.16,14.16,0,0,1,888.25,346.16Z"/><path d="M906.47,360.76c-8.52,0-14.57-6.32-14.45-15,.11-8.25,6.32-14.24,14.72-14.21s14.6,6.37,14.47,15C921.1,354.76,914.83,360.8,906.47,360.76Z"/><path d="M49.14,393.73c-8.46-.1-14.45-6.44-14.29-15.15.16-8.19,6.46-14.13,14.89-14.05S64.23,371,64.05,379.67C63.88,387.82,57.52,393.81,49.14,393.73Z"/><path d="M82.21,393.73c-8.49-.07-14.53-6.38-14.39-15.06.13-8.23,6.37-14.19,14.79-14.14S97.16,371,97,379.58C96.88,387.77,90.58,393.79,82.21,393.73Z"/><path d="M265.63,378.85c.08-8.48,6.41-14.48,15.12-14.32,8.17.15,14.16,6.48,14.08,14.88s-6.49,14.48-15.14,14.31C271.5,393.57,265.55,387.27,265.63,378.85Z"/><path d="M379.12,393.73c-8.55,0-14.66-6.23-14.59-14.85.07-8.28,6.24-14.35,14.59-14.35,8.53,0,14.69,6.25,14.61,14.85A14.2,14.2,0,0,1,379.12,393.73Z"/><path d="M411.84,393.73c-8.48-.08-14.49-6.41-14.34-15.1.14-8.22,6.41-14.17,14.84-14.1s14.52,6.45,14.36,15.09C426.54,387.79,420.21,393.8,411.84,393.73Z"/><path d="M445.25,393.73c-8.61,0-14.8-6.09-14.78-14.66a14.12,14.12,0,0,1,14.4-14.54c8.59-.06,14.81,6.1,14.8,14.65A14.19,14.19,0,0,1,445.25,393.73Z"/><path d="M478.23,364.53a14.15,14.15,0,0,1,14.4,14.55c0,8.52-6.24,14.71-14.81,14.65s-14.52-6.38-14.38-15.06C463.57,370.44,469.81,364.48,478.23,364.53Z"/><path d="M543.61,393.73c-8.45-.11-14.42-6.49-14.24-15.2.17-8.16,6.51-14.1,14.94-14s14.45,6.52,14.26,15.19C558.38,387.84,552,393.83,543.61,393.73Z"/><path d="M610.11,364.53a14.15,14.15,0,0,1,14.39,14.56c0,8.52-6.24,14.7-14.82,14.64s-14.51-6.38-14.37-15.06C595.44,370.44,601.68,364.47,610.11,364.53Z"/><path d="M628.27,378.86c.08-8.48,6.41-14.48,15.11-14.33,8.18.15,14.17,6.47,14.09,14.86s-6.47,14.49-15.12,14.33C634.15,393.57,628.2,387.29,628.27,378.86Z"/><path d="M675.57,393.73c-8.48-.08-14.48-6.41-14.33-15.11.15-8.21,6.41-14.16,14.85-14.09s14.51,6.45,14.35,15.1C690.28,387.79,683.94,393.8,675.57,393.73Z"/><path d="M708.53,393.73c-8.48-.09-14.48-6.42-14.32-15.12.15-8.2,6.42-14.15,14.86-14.08s14.5,6.46,14.34,15.11C723.25,387.8,716.9,393.8,708.53,393.73Z"/><path d="M741.67,393.73c-8.52,0-14.6-6.29-14.49-15,.1-8.25,6.29-14.27,14.68-14.25s14.62,6.33,14.51,14.94C756.27,387.69,750,393.76,741.67,393.73Z"/><path d="M873.35,393.73c-8.47-.09-14.46-6.43-14.3-15.14.15-8.19,6.44-14.14,14.87-14.06s14.5,6.47,14.32,15.13C888.08,387.81,881.73,393.81,873.35,393.73Z"/><path d="M906.33,393.73c-8.48-.09-14.47-6.42-14.31-15.12.15-8.21,6.43-14.16,14.86-14.08s14.5,6.47,14.33,15.12C921.05,387.8,914.7,393.81,906.33,393.73Z"/><path d="M16.08,426.69c-8.43-.12-14.39-6.52-14.19-15.24.18-8.15,6.54-14.06,15-13.95,8.22.11,14.26,6.38,14.21,14.74S24.69,426.81,16.08,426.69Z"/><path d="M49.07,426.69c-8.44-.11-14.41-6.5-14.22-15.21.18-8.15,6.53-14.08,15-14S64.25,404,64.05,412.71C63.86,420.82,57.45,426.8,49.07,426.69Z"/><path d="M67.82,411.85c.07-8.48,6.39-14.5,15.08-14.35,8.19.14,14.19,6.45,14.12,14.84s-6.46,14.5-15.1,14.35C73.7,426.55,67.75,420.28,67.82,411.85Z"/><path d="M115,426.69c-8.45-.1-14.43-6.48-14.24-15.2.17-8.15,6.51-14.09,14.94-14S130.18,404,130,412.69C129.8,420.81,123.41,426.8,115,426.69Z"/><path d="M148.1,426.69c-8.48-.07-14.49-6.39-14.34-15.09.14-8.21,6.4-14.17,14.83-14.1s14.52,6.44,14.36,15.09C162.8,420.75,156.47,426.77,148.1,426.69Z"/><path d="M181.15,426.69c-8.5-.05-14.55-6.33-14.42-15,.11-8.25,6.33-14.23,14.74-14.19s14.58,6.38,14.45,15C195.8,420.71,189.52,426.74,181.15,426.69Z"/><path d="M199.69,411.84c.08-8.48,6.4-14.49,15.09-14.34,8.18.14,14.19,6.46,14.11,14.84s-6.46,14.51-15.11,14.35C205.57,426.55,199.62,420.27,199.69,411.84Z"/><path d="M247.05,426.69c-8.49-.05-14.52-6.36-14.39-15,.13-8.23,6.36-14.2,14.78-14.15s14.56,6.41,14.42,15C261.72,420.74,255.43,426.75,247.05,426.69Z"/><path d="M378.85,426.69c-8.48-.08-14.48-6.41-14.32-15.11.15-8.21,6.43-14.16,14.86-14.08s14.51,6.46,14.34,15.11C393.57,420.77,387.23,426.77,378.85,426.69Z"/><path d="M397.5,411.82c.08-8.48,6.41-14.48,15.12-14.32,8.17.15,14.16,6.48,14.08,14.87s-6.49,14.49-15.14,14.32C403.37,426.54,397.42,420.24,397.5,411.82Z"/><path d="M444.85,426.69c-8.49-.06-14.52-6.37-14.38-15.05.13-8.23,6.37-14.2,14.79-14.14s14.55,6.41,14.4,15.05C459.53,420.74,453.23,426.75,444.85,426.69Z"/><path d="M496.4,411.91c.06-8.5,6.35-14.54,15-14.41,8.2.12,14.23,6.4,14.17,14.78s-6.42,14.55-15.05,14.41C502.32,426.56,496.35,420.33,496.4,411.91Z"/><path d="M543.73,426.69c-8.48-.07-14.51-6.39-14.36-15.07.14-8.23,6.39-14.18,14.82-14.12s14.53,6.43,14.38,15.07C558.42,420.75,552.1,426.76,543.73,426.69Z"/><path d="M576.7,426.69c-8.49-.07-14.51-6.39-14.36-15.07.14-8.23,6.39-14.18,14.82-14.12s14.53,6.43,14.37,15.07C591.39,420.75,585.07,426.76,576.7,426.69Z"/><path d="M643.11,397.5a14.14,14.14,0,0,1,14.36,14.59c0,8.51-6.27,14.68-14.85,14.6s-14.5-6.39-14.35-15.09C628.42,403.39,634.68,397.43,643.11,397.5Z"/><path d="M723.41,412.09a14.19,14.19,0,0,1-14.36,14.6c-8.62.07-14.84-6.05-14.84-14.6s6.22-14.66,14.84-14.59A14.15,14.15,0,0,1,723.41,412.09Z"/><path d="M727.18,411.91c.05-8.5,6.35-14.54,15-14.41,8.21.12,14.23,6.4,14.17,14.78s-6.41,14.55-15,14.41C733.1,426.56,727.12,420.32,727.18,411.91Z"/><path d="M840.66,397.5c8.53,0,14.69,6.24,14.62,14.83a14.19,14.19,0,0,1-14.6,14.36c-8.55,0-14.67-6.21-14.6-14.83A14.12,14.12,0,0,1,840.66,397.5Z"/><path d="M906.85,397.5a14.14,14.14,0,0,1,14.36,14.59c0,8.51-6.27,14.68-14.85,14.6S891.87,420.3,892,411.6C892.16,403.38,898.42,397.43,906.85,397.5Z"/><path d="M925,411.91c.06-8.5,6.35-14.54,15-14.41,8.2.12,14.23,6.4,14.17,14.78s-6.41,14.55-15,14.41C930.9,426.56,924.93,420.33,925,411.91Z"/><path d="M16.32,459.66c-8.51-.05-14.55-6.33-14.43-15,.11-8.24,6.33-14.23,14.74-14.19s14.58,6.37,14.45,15C31,453.67,24.69,459.71,16.32,459.66Z"/><path d="M148.17,459.66c-8.5-.05-14.54-6.34-14.41-15,.12-8.24,6.34-14.22,14.76-14.17s14.57,6.39,14.43,15C162.83,453.69,156.54,459.71,148.17,459.66Z"/><path d="M181.3,430.47c8.54,0,14.7,6.24,14.62,14.83a14.19,14.19,0,0,1-14.6,14.36c-8.55,0-14.67-6.22-14.6-14.84A14.12,14.12,0,0,1,181.3,430.47Z"/><path d="M247.25,430.47c8.53,0,14.68,6.24,14.61,14.84a14.2,14.2,0,0,1-14.61,14.35c-8.55,0-14.66-6.22-14.59-14.84C232.73,436.54,238.9,430.47,247.25,430.47Z"/><path d="M280.25,430.47a14.16,14.16,0,0,1,14.58,14.38c.06,8.56-6.13,14.82-14.65,14.81s-14.64-6.25-14.55-14.88C265.71,436.5,271.88,430.46,280.25,430.47Z"/><path d="M312.89,459.66c-8.47-.09-14.46-6.44-14.29-15.14.15-8.19,6.45-14.14,14.88-14S328,437,327.79,445.61C327.63,453.75,321.26,459.75,312.89,459.66Z"/><path d="M345.86,459.66c-8.47-.09-14.46-6.43-14.3-15.14.16-8.19,6.45-14.13,14.88-14s14.5,6.47,14.32,15.13C360.6,453.75,354.24,459.75,345.86,459.66Z"/><path d="M463.43,444.84c.07-8.48,6.38-14.51,15.06-14.37,8.19.13,14.21,6.43,14.14,14.81s-6.44,14.52-15.08,14.38C469.33,459.52,463.37,453.27,463.43,444.84Z"/><path d="M543.72,459.66c-8.49-.07-14.5-6.4-14.35-15.09.14-8.22,6.4-14.17,14.83-14.1s14.53,6.44,14.37,15.08C558.42,453.72,552.09,459.73,543.72,459.66Z"/><path d="M643.26,430.47c8.22.11,14.26,6.37,14.21,14.74s-6.39,14.57-15,14.45c-8.43-.12-14.39-6.52-14.19-15.25C628.46,436.27,634.82,430.35,643.26,430.47Z"/><path d="M675.68,459.66c-8.51-.05-14.56-6.33-14.44-15,.12-8.24,6.34-14.23,14.74-14.19s14.59,6.37,14.46,15C690.32,453.67,684,459.71,675.68,459.66Z"/><path d="M708.4,459.66c-8.43-.12-14.39-6.52-14.19-15.24.19-8.15,6.54-14.07,15-13.95,8.21.11,14.25,6.37,14.21,14.74S717,459.78,708.4,459.66Z"/><path d="M115.21,492.63c-8.51-.05-14.55-6.34-14.42-15,.12-8.24,6.35-14.22,14.76-14.18s14.57,6.4,14.44,15C129.86,486.65,123.58,492.68,115.21,492.63Z"/><path d="M148.38,463.43A14.15,14.15,0,0,1,163,477.81c.07,8.57-6.12,14.83-14.64,14.82s-14.64-6.25-14.55-14.88C133.84,469.47,140,463.43,148.38,463.43Z"/><path d="M214.12,492.63c-8.51-.05-14.55-6.34-14.43-15,.12-8.24,6.34-14.23,14.75-14.19s14.58,6.39,14.45,15C228.76,486.64,222.49,492.68,214.12,492.63Z"/><path d="M247.29,463.43a14.16,14.16,0,0,1,14.57,14.39c.06,8.56-6.13,14.82-14.65,14.81s-14.64-6.26-14.55-14.89C232.74,469.46,238.92,463.42,247.29,463.43Z"/><path d="M379.13,463.43a14.16,14.16,0,0,1,14.6,14.36c.07,8.57-6.11,14.85-14.62,14.84s-14.66-6.24-14.58-14.86C364.61,469.49,370.78,463.43,379.13,463.43Z"/><path d="M477.8,492.63c-8.48-.07-14.51-6.39-14.36-15.07.13-8.23,6.38-14.19,14.81-14.13s14.53,6.43,14.38,15.07C492.49,486.68,486.17,492.69,477.8,492.63Z"/><path d="M675.54,492.63c-8.47-.09-14.46-6.43-14.3-15.14.16-8.19,6.45-14.14,14.88-14.06s14.49,6.48,14.32,15.14C690.27,486.71,683.92,492.72,675.54,492.63Z"/><path d="M741.6,492.63c-8.51-.05-14.55-6.34-14.42-15,.12-8.24,6.34-14.22,14.75-14.18s14.58,6.39,14.44,15C756.25,486.65,750,492.68,741.6,492.63Z"/><path d="M822.31,477.84c.06,8.37-6,14.67-14.18,14.79-8.67.13-15-5.91-15-14.42s6.09-14.79,14.66-14.78A14.17,14.17,0,0,1,822.31,477.84Z"/><path d="M840.88,463.43A14.16,14.16,0,0,1,855.28,478c0,8.52-6.25,14.7-14.82,14.64s-14.52-6.38-14.38-15.06C826.21,469.34,832.46,463.38,840.88,463.43Z"/><path d="M859.05,477.84c.05-8.5,6.35-14.53,15-14.41,8.21.13,14.23,6.41,14.18,14.79s-6.42,14.54-15,14.41C865,492.5,859,486.26,859.05,477.84Z"/><path d="M906.81,463.43A14.15,14.15,0,0,1,921.21,478c0,8.52-6.24,14.71-14.81,14.65s-14.52-6.37-14.38-15.05C892.15,469.35,898.39,463.38,906.81,463.43Z"/><path d="M939.61,463.43a14.16,14.16,0,0,1,14.57,14.39c.07,8.56-6.13,14.82-14.65,14.81S924.9,486.37,925,477.74C925.07,469.46,931.24,463.42,939.61,463.43Z"/><path d="M133.76,510.72c.08-8.48,6.41-14.47,15.11-14.32,8.18.15,14.17,6.48,14.08,14.87s-6.48,14.49-15.13,14.33C139.63,525.44,133.68,519.15,133.76,510.72Z"/><path d="M232.66,510.67c.1-8.46,6.46-14.44,15.17-14.27,8.16.17,14.13,6.52,14,14.93s-6.52,14.45-15.19,14.27C238.51,525.43,232.56,519.09,232.66,510.67Z"/><path d="M265.63,510.72c.08-8.48,6.41-14.47,15.11-14.32,8.18.15,14.17,6.48,14.09,14.87s-6.49,14.49-15.14,14.33C271.5,525.44,265.55,519.15,265.63,510.72Z"/><path d="M378.82,525.6c-8.47-.09-14.46-6.44-14.29-15.15.16-8.19,6.46-14.13,14.89-14.05s14.49,6.49,14.31,15.15C393.56,519.69,387.2,525.69,378.82,525.6Z"/><path d="M412.43,525.6c-8.65.1-14.9-6-14.93-14.51,0-8.38,6-14.59,14.24-14.69,8.61-.1,14.93,6,15,14.5S420.65,525.5,412.43,525.6Z"/><path d="M430.47,510.77c.06-8.48,6.38-14.51,15.06-14.37,8.19.14,14.2,6.44,14.13,14.82s-6.44,14.52-15.08,14.38C436.36,525.46,430.4,519.2,430.47,510.77Z"/><path d="M511.11,496.4a14.6,14.6,0,1,1-.23,29.2c-8.53,0-14.59-6.31-14.48-15C496.51,502.38,502.71,496.37,511.11,496.4Z"/><path d="M577.33,496.4c8.22.11,14.25,6.38,14.21,14.75s-6.4,14.57-15,14.45c-8.43-.13-14.38-6.53-14.18-15.26C562.53,502.2,568.89,496.29,577.33,496.4Z"/><path d="M642.46,525.6c-8.43-.12-14.39-6.53-14.19-15.25.19-8.14,6.55-14.06,15-14s14.42,6.56,14.21,15.24C657.27,519.74,650.84,525.71,642.46,525.6Z"/><path d="M676.24,496.4c8.21.11,14.25,6.38,14.2,14.75s-6.4,14.57-15,14.45c-8.42-.13-14.38-6.53-14.18-15.26C661.43,502.2,667.79,496.29,676.24,496.4Z"/><path d="M840.94,496.4A14.16,14.16,0,0,1,855.28,511c0,8.5-6.3,14.66-14.88,14.58s-14.48-6.42-14.32-15.12C826.23,502.27,832.51,496.33,840.94,496.4Z"/><path d="M906.45,525.6c-8.51-.05-14.55-6.33-14.43-15,.11-8.25,6.33-14.24,14.74-14.2s14.58,6.38,14.45,15C921.09,519.61,914.82,525.64,906.45,525.6Z"/><path d="M34.85,543.75c.07-8.49,6.38-14.52,15.06-14.38,8.19.13,14.21,6.43,14.14,14.81S57.61,558.71,49,558.56C40.75,558.43,34.79,552.17,34.85,543.75Z"/><path d="M100.79,543.7c.08-8.48,6.4-14.48,15.11-14.33,8.17.14,14.17,6.47,14.09,14.86s-6.48,14.49-15.13,14.33C106.66,558.41,100.71,552.12,100.79,543.7Z"/><path d="M148.35,529.37A14.15,14.15,0,0,1,163,543.72c.08,8.57-6.1,14.85-14.61,14.84s-14.66-6.23-14.58-14.85C133.83,535.43,140,529.37,148.35,529.37Z"/><path d="M199.69,543.77c.06-8.5,6.36-14.53,15-14.4,8.2.12,14.22,6.41,14.16,14.79s-6.42,14.54-15.06,14.4C205.61,558.43,199.64,552.19,199.69,543.77Z"/><path d="M247.15,558.56c-8.52,0-14.59-6.29-14.49-14.94.1-8.26,6.3-14.28,14.69-14.25s14.62,6.33,14.51,14.94C261.75,552.53,255.5,558.59,247.15,558.56Z"/><path d="M346.37,529.37a14.15,14.15,0,0,1,14.39,14.56c0,8.52-6.25,14.7-14.82,14.63s-14.52-6.38-14.38-15.06C331.7,535.27,337.94,529.31,346.37,529.37Z"/><path d="M411.92,558.56c-8.51,0-14.55-6.34-14.42-15,.12-8.25,6.35-14.23,14.76-14.18s14.57,6.39,14.44,15C426.57,552.59,420.29,558.62,411.92,558.56Z"/><path d="M511,529.37c8.54,0,14.71,6.22,14.64,14.81A14.19,14.19,0,0,1,511,558.56c-8.56,0-14.68-6.2-14.62-14.81A14.13,14.13,0,0,1,511,529.37Z"/><path d="M544.18,529.37a14.15,14.15,0,0,1,14.39,14.56c0,8.52-6.25,14.7-14.83,14.63s-14.51-6.38-14.37-15.06C529.5,535.27,535.75,529.31,544.18,529.37Z"/><path d="M576.83,558.56c-8.52,0-14.6-6.29-14.49-14.94.1-8.26,6.3-14.28,14.68-14.25s14.63,6.33,14.52,14.94C591.43,552.53,585.17,558.59,576.83,558.56Z"/><path d="M595.31,543.78c.05-8.5,6.35-14.54,15-14.41,8.2.12,14.22,6.41,14.16,14.78s-6.42,14.55-15,14.41C601.22,558.43,595.25,552.19,595.31,543.78Z"/><path d="M661.24,543.67c.09-8.47,6.42-14.46,15.13-14.3,8.17.15,14.16,6.49,14.07,14.89s-6.49,14.47-15.15,14.3C667.11,558.41,661.16,552.1,661.24,543.67Z"/><path d="M694.21,543.65c.09-8.46,6.44-14.45,15.15-14.28,8.17.16,14.14,6.5,14,14.91s-6.51,14.46-15.18,14.28C700.06,558.4,694.12,552.07,694.21,543.65Z"/><path d="M892,543.67c.08-8.47,6.42-14.46,15.13-14.3,8.17.15,14.16,6.49,14.06,14.89s-6.49,14.47-15.15,14.3C897.88,558.4,891.93,552.09,892,543.67Z"/><path d="M67.82,576.75c.05-8.5,6.35-14.54,15-14.41,8.2.12,14.22,6.4,14.17,14.78s-6.42,14.55-15,14.41C73.74,591.4,67.77,585.16,67.82,576.75Z"/><path d="M115.76,562.34c8.21.1,14.27,6.36,14.23,14.72s-6.38,14.59-15,14.47c-8.44-.11-14.4-6.5-14.21-15.22C101,568.16,107.32,562.23,115.76,562.34Z"/><path d="M148.06,591.53c-8.48-.09-14.47-6.43-14.3-15.13.15-8.2,6.44-14.14,14.88-14.06s14.49,6.47,14.31,15.13C162.79,585.62,156.43,591.62,148.06,591.53Z"/><path d="M166.72,576.69c.08-8.48,6.4-14.5,15.09-14.35,8.18.14,14.19,6.45,14.11,14.84s-6.45,14.5-15.1,14.35C172.61,591.39,166.65,585.12,166.72,576.69Z"/><path d="M313.37,591.53c-8.6.05-14.79-6.09-14.77-14.65A14.12,14.12,0,0,1,313,562.34c8.59-.06,14.81,6.1,14.79,14.65A14.17,14.17,0,0,1,313.37,591.53Z"/><path d="M345.88,591.53c-8.48-.08-14.48-6.42-14.32-15.12.16-8.2,6.44-14.15,14.87-14.07s14.5,6.46,14.33,15.12C360.6,585.61,354.25,591.61,345.88,591.53Z"/><path d="M379.17,562.34a14.16,14.16,0,0,1,14.56,14.4c.06,8.56-6.14,14.81-14.66,14.79s-14.63-6.26-14.54-14.9C364.62,568.36,370.8,562.32,379.17,562.34Z"/><path d="M397.5,576.7c.07-8.49,6.39-14.51,15.08-14.36,8.18.13,14.19,6.45,14.12,14.83s-6.46,14.51-15.1,14.36C403.38,591.39,397.43,585.13,397.5,576.7Z"/><path d="M463.43,576.61c.1-8.46,6.46-14.45,15.17-14.27,8.17.16,14.13,6.51,14,14.92s-6.52,14.45-15.18,14.27C469.28,591.36,463.34,585,463.43,576.61Z"/><path d="M529.37,576.62c.09-8.47,6.44-14.45,15.15-14.28,8.17.16,14.15,6.5,14.05,14.91s-6.51,14.46-15.18,14.28C535.22,591.37,529.28,585,529.37,576.62Z"/><path d="M562.34,576.72c.06-8.49,6.37-14.52,15-14.38,8.19.13,14.21,6.42,14.15,14.8s-6.44,14.53-15.07,14.39C568.24,591.4,562.28,585.15,562.34,576.72Z"/><path d="M694.21,576.75c0-8.5,6.35-14.54,15-14.41,8.2.12,14.22,6.4,14.17,14.78s-6.42,14.55-15,14.41C700.13,591.4,694.16,585.16,694.21,576.75Z"/><path d="M741.52,591.53c-8.48-.07-14.49-6.4-14.34-15.09.14-8.22,6.4-14.17,14.83-14.1s14.52,6.44,14.36,15.09C756.22,585.59,749.89,591.6,741.52,591.53Z"/><path d="M774.57,591.53c-8.5,0-14.55-6.33-14.42-15,.11-8.25,6.33-14.24,14.74-14.19s14.58,6.38,14.45,15C789.22,585.55,782.94,591.58,774.57,591.53Z"/><path d="M826.08,576.72c.06-8.49,6.37-14.52,15-14.38,8.19.13,14.21,6.42,14.15,14.8s-6.44,14.53-15.07,14.39C832,591.4,826,585.15,826.08,576.72Z"/><path d="M939.22,591.53c-8.45-.1-14.42-6.48-14.24-15.2.18-8.15,6.52-14.09,14.94-14s14.46,6.52,14.26,15.19C954,585.65,947.6,591.64,939.22,591.53Z"/><path d="M31.08,609.72c.06,8.36-6,14.66-14.17,14.78-8.68.13-15-5.91-15-14.41S8,595.29,16.54,595.3A14.16,14.16,0,0,1,31.08,609.72Z"/><path d="M82.31,624.5c-8.52,0-14.59-6.29-14.49-14.94.1-8.26,6.3-14.28,14.69-14.26S97.13,601.64,97,610.24C96.91,618.47,90.66,624.53,82.31,624.5Z"/><path d="M115.59,595.31A14.15,14.15,0,0,1,130,609.86c0,8.52-6.25,14.7-14.82,14.64s-14.52-6.38-14.38-15.06C100.92,601.21,107.17,595.25,115.59,595.31Z"/><path d="M133.76,609.66c.07-8.48,6.39-14.5,15.07-14.35,8.19.13,14.2,6.44,14.12,14.83s-6.45,14.51-15.09,14.36C139.64,624.36,133.69,618.09,133.76,609.66Z"/><path d="M214.31,595.3a14.17,14.17,0,0,1,14.58,14.38c.07,8.57-6.12,14.83-14.64,14.82s-14.64-6.25-14.56-14.88C199.77,601.34,206,595.3,214.31,595.3Z"/><path d="M280,624.5c-8.48-.08-14.48-6.41-14.32-15.11.15-8.21,6.42-14.16,14.85-14.08s14.51,6.45,14.34,15.1C294.67,618.57,288.33,624.58,280,624.5Z"/><path d="M298.6,609.66c.06-8.48,6.39-14.5,15.07-14.35,8.19.13,14.2,6.44,14.12,14.83s-6.45,14.51-15.09,14.36C304.48,624.36,298.53,618.09,298.6,609.66Z"/><path d="M411.72,624.5c-8.44-.11-14.41-6.5-14.22-15.21.18-8.16,6.52-14.09,15-14s14.44,6.53,14.24,15.21C426.51,618.63,420.1,624.61,411.72,624.5Z"/><path d="M463.43,609.71c.06-8.5,6.35-14.53,15-14.4,8.2.12,14.23,6.4,14.17,14.78s-6.41,14.54-15,14.41C469.35,624.37,463.38,618.13,463.43,609.71Z"/><path d="M543.67,624.5c-8.47-.09-14.46-6.43-14.3-15.13.15-8.2,6.44-14.14,14.87-14.06s14.5,6.47,14.33,15.12C558.4,618.58,552.05,624.58,543.67,624.5Z"/><path d="M576.76,624.5c-8.51,0-14.55-6.34-14.42-15,.12-8.24,6.35-14.22,14.76-14.18s14.57,6.4,14.44,15C591.41,618.52,585.13,624.55,576.76,624.5Z"/><path d="M741.59,624.5c-8.5,0-14.54-6.34-14.41-15,.12-8.24,6.34-14.22,14.76-14.18s14.57,6.4,14.43,15C756.25,618.52,750,624.55,741.59,624.5Z"/><path d="M774.56,624.5c-8.5,0-14.54-6.34-14.41-15,.12-8.24,6.34-14.22,14.76-14.18s14.57,6.4,14.43,15C789.21,618.52,782.93,624.55,774.56,624.5Z"/><path d="M906.31,624.5c-8.47-.09-14.46-6.44-14.29-15.15.15-8.18,6.45-14.13,14.88-14s14.49,6.48,14.31,15.14C921,618.59,914.68,624.59,906.31,624.5Z"/><path d="M939.35,624.5c-8.48-.07-14.51-6.39-14.37-15.07.14-8.23,6.39-14.18,14.82-14.12s14.53,6.42,14.38,15.06C954,618.55,947.72,624.57,939.35,624.5Z"/><path d="M82.17,657.47c-8.49-.08-14.5-6.4-14.35-15.09.14-8.22,6.41-14.17,14.83-14.11S97.18,634.72,97,643.36C96.87,651.53,90.54,657.54,82.17,657.47Z"/><path d="M148.1,657.47c-8.48-.08-14.49-6.4-14.34-15.09.14-8.22,6.4-14.17,14.83-14.11s14.52,6.45,14.36,15.09C162.8,651.53,156.47,657.54,148.1,657.47Z"/><path d="M312.82,657.47c-8.44-.11-14.41-6.5-14.22-15.22.17-8.15,6.52-14.08,14.95-14s14.44,6.54,14.24,15.21C327.6,651.59,321.2,657.58,312.82,657.47Z"/><path d="M364.53,642.54c.1-8.46,6.46-14.44,15.17-14.27,8.16.17,14.13,6.52,14,14.93s-6.52,14.45-15.19,14.27C370.38,657.3,364.44,651,364.53,642.54Z"/><path d="M411.74,657.47c-8.45-.11-14.43-6.49-14.24-15.2.17-8.16,6.51-14.1,14.94-14s14.45,6.53,14.26,15.2C426.51,651.59,420.12,657.57,411.74,657.47Z"/><path d="M463.43,642.63c.08-8.49,6.4-14.5,15.09-14.36,8.18.14,14.19,6.46,14.11,14.84s-6.45,14.51-15.1,14.36C469.32,657.32,463.36,651.05,463.43,642.63Z"/><path d="M576.55,657.47c-8.44-.12-14.4-6.51-14.21-15.22.18-8.15,6.53-14.08,15-14s14.44,6.55,14.23,15.22C591.34,651.6,584.93,657.58,576.55,657.47Z"/><path d="M595.31,642.68c.05-8.5,6.35-14.54,15-14.41,8.2.13,14.22,6.41,14.16,14.79s-6.42,14.54-15,14.41C601.22,657.34,595.25,651.1,595.31,642.68Z"/><path d="M675.56,657.47c-8.48-.08-14.48-6.41-14.32-15.12.15-8.2,6.43-14.15,14.86-14.08s14.51,6.46,14.34,15.11C690.28,651.54,683.94,657.55,675.56,657.47Z"/><path d="M774.45,657.47c-8.48-.09-14.47-6.43-14.3-15.13.15-8.2,6.44-14.15,14.87-14.07s14.49,6.47,14.32,15.13C789.18,651.55,782.82,657.55,774.45,657.47Z"/><path d="M892,642.59c.08-8.48,6.41-14.47,15.12-14.32,8.17.15,14.16,6.48,14.07,14.88s-6.48,14.48-15.14,14.32C897.88,657.31,891.93,651,892,642.59Z"/><path d="M925,642.56c.1-8.47,6.45-14.46,15.16-14.29,8.16.16,14.14,6.51,14,14.91s-6.5,14.46-15.17,14.29C930.84,657.3,924.89,651,925,642.56Z"/><path d="M312.88,31.08c-8.46-.09-14.45-6.44-14.28-15.15.16-8.18,6.46-14.13,14.89-14S328,8.37,327.79,17C327.62,25.17,321.26,31.17,312.88,31.08Z"/><path d="M16.34,690.44c-8.52-.05-14.57-6.32-14.45-15C2,667.2,8.21,661.2,16.61,661.24s14.6,6.37,14.47,15C31,684.44,24.69,690.48,16.34,690.44Z"/><path d="M82.25,690.44c-8.51-.05-14.55-6.34-14.43-15,.12-8.25,6.34-14.23,14.75-14.19s14.58,6.38,14.45,15C96.89,684.45,90.62,690.48,82.25,690.44Z"/><path d="M100.79,675.59c.07-8.48,6.39-14.49,15.08-14.35,8.18.14,14.19,6.45,14.12,14.84s-6.46,14.51-15.11,14.35C106.67,690.29,100.72,684,100.79,675.59Z"/><path d="M199.69,675.58c.08-8.48,6.4-14.49,15.1-14.34,8.18.14,14.18,6.46,14.1,14.85s-6.47,14.5-15.11,14.34C205.57,690.29,199.62,684,199.69,675.58Z"/><path d="M232.66,675.63c.06-8.49,6.37-14.52,15.05-14.39,8.19.13,14.21,6.43,14.15,14.81s-6.44,14.53-15.07,14.38C238.56,690.3,232.6,684.05,232.66,675.63Z"/><path d="M265.63,675.62c.06-8.49,6.37-14.52,15.06-14.38,8.19.13,14.2,6.43,14.14,14.81s-6.44,14.53-15.08,14.38C271.53,690.3,265.57,684,265.63,675.62Z"/><path d="M346.57,661.24c8.21.12,14.24,6.39,14.19,14.76s-6.4,14.56-15,14.43c-8.43-.12-14.37-6.52-14.17-15.26C331.76,667,338.13,661.12,346.57,661.24Z"/><path d="M379.31,690.44c-8.6,0-14.8-6.09-14.78-14.66a14.13,14.13,0,0,1,14.4-14.54c8.6-.06,14.82,6.1,14.8,14.65A14.19,14.19,0,0,1,379.31,690.44Z"/><path d="M444.66,690.43c-8.43-.11-14.39-6.52-14.19-15.24.19-8.15,6.54-14.06,15-14s14.43,6.56,14.21,15.24C459.47,684.57,453,690.55,444.66,690.43Z"/><path d="M477.9,690.44c-8.52,0-14.58-6.31-14.47-15,.11-8.25,6.32-14.25,14.72-14.22s14.6,6.36,14.48,15C492.52,684.43,486.25,690.47,477.9,690.44Z"/><path d="M529.37,675.61c.06-8.48,6.38-14.51,15.06-14.37,8.19.13,14.21,6.44,14.14,14.82s-6.45,14.52-15.09,14.37C535.27,690.3,529.31,684,529.37,675.61Z"/><path d="M873.5,690.44c-8.52-.05-14.57-6.32-14.45-15,.11-8.25,6.32-14.25,14.72-14.21s14.6,6.36,14.48,15C888.13,684.43,881.86,690.48,873.5,690.44Z"/><path d="M412.06,1.88c8.54,0,14.7,6.23,14.64,14.82a14.2,14.2,0,0,1-14.58,14.38c-8.56,0-14.68-6.2-14.62-14.82A14.13,14.13,0,0,1,412.06,1.88Z"/><path d="M279.84,723.4c-8.44-.11-14.4-6.5-14.21-15.22.18-8.15,6.53-14.08,15-14s14.44,6.54,14.23,15.22C294.63,717.53,288.22,723.51,279.84,723.4Z"/><path d="M346.35,694.21a14.15,14.15,0,0,1,14.41,14.54c0,8.52-6.24,14.71-14.81,14.65s-14.52-6.36-14.39-15C331.69,700.12,337.93,694.15,346.35,694.21Z"/><path d="M411.86,723.4c-8.48-.07-14.51-6.39-14.36-15.07.14-8.23,6.39-14.18,14.82-14.12s14.53,6.43,14.38,15.07C426.55,717.46,420.23,723.47,411.86,723.4Z"/><path d="M444.83,723.4c-8.49-.07-14.51-6.39-14.36-15.07.14-8.23,6.39-14.18,14.82-14.12s14.53,6.43,14.37,15.07C459.52,717.46,453.2,723.47,444.83,723.4Z"/><path d="M544.15,723.4c-8.61.06-14.8-6.09-14.78-14.65a14.12,14.12,0,0,1,14.4-14.54c8.6-.06,14.82,6.1,14.8,14.65A14.19,14.19,0,0,1,544.15,723.4Z"/><path d="M576.77,723.4c-8.51,0-14.55-6.33-14.43-15,.12-8.25,6.34-14.23,14.75-14.19s14.58,6.38,14.45,15C591.41,717.42,585.13,723.45,576.77,723.4Z"/><path d="M610.08,723.4c-8.6.06-14.79-6.09-14.77-14.65a14.12,14.12,0,0,1,14.4-14.54c8.59-.06,14.81,6.1,14.79,14.65A14.17,14.17,0,0,1,610.08,723.4Z"/><path d="M642.47,723.4c-8.43-.11-14.39-6.51-14.2-15.23.19-8.15,6.54-14.07,15-14,8.22.11,14.26,6.37,14.22,14.73S651.09,723.52,642.47,723.4Z"/><path d="M873.24,723.4c-8.43-.12-14.39-6.52-14.19-15.24.19-8.15,6.54-14.06,15-13.95s14.42,6.56,14.2,15.24C888.05,717.54,881.62,723.52,873.24,723.4Z"/><path d="M906.21,723.4c-8.43-.12-14.39-6.52-14.19-15.24.18-8.15,6.54-14.06,15-13.95s14.42,6.56,14.21,15.24C921,717.54,914.58,723.52,906.21,723.4Z"/><path d="M939.17,723.4c-8.43-.12-14.39-6.52-14.19-15.24.19-8.15,6.55-14.06,15-13.95s14.42,6.56,14.21,15.24C954,717.54,947.55,723.52,939.17,723.4Z"/><path d="M478,1.88a14.16,14.16,0,0,1,14.6,14.36c.08,8.57-6.1,14.85-14.61,14.84s-14.66-6.23-14.59-14.85C463.51,8,469.68,1.89,478,1.88Z"/><path d="M510.76,31.08C502.28,31,496.26,24.69,496.4,16c.14-8.22,6.39-14.18,14.82-14.11S525.75,8.32,525.6,17C525.45,25.13,519.13,31.15,510.76,31.08Z"/><path d="M280,756.37c-8.5,0-14.54-6.35-14.41-15,.12-8.23,6.35-14.21,14.77-14.16s14.56,6.39,14.43,15C294.69,750.4,288.41,756.42,280,756.37Z"/><path d="M529.37,741.55c.06-8.48,6.38-14.51,15.06-14.37,8.19.13,14.2,6.43,14.14,14.81s-6.44,14.53-15.08,14.38C535.27,756.23,529.31,750,529.37,741.55Z"/><path d="M562.34,741.59c0-8.5,6.35-14.54,15-14.41,8.21.12,14.23,6.4,14.18,14.78s-6.42,14.54-15,14.41C568.26,756.24,562.28,750,562.34,741.59Z"/><path d="M906.34,756.37c-8.48-.08-14.48-6.41-14.32-15.11.14-8.21,6.41-14.16,14.85-14.08s14.51,6.45,14.34,15.1C921.06,750.44,914.72,756.45,906.34,756.37Z"/><path d="M576.64,31.08c-8.48-.09-14.47-6.43-14.3-15.14.15-8.19,6.45-14.14,14.88-14S591.71,8.36,591.53,17C591.37,25.17,585,31.17,576.64,31.08Z"/><path d="M312.88,789.34c-8.47-.09-14.45-6.45-14.28-15.15.16-8.19,6.46-14.13,14.89-14.05s14.48,6.49,14.3,15.15C327.62,783.44,321.26,789.43,312.88,789.34Z"/><path d="M430.47,774.52c.06-8.49,6.38-14.52,15.06-14.38,8.19.14,14.2,6.44,14.13,14.82s-6.44,14.52-15.08,14.38C436.36,789.2,430.4,782.94,430.47,774.52Z"/><path d="M463.43,774.56c.06-8.5,6.35-14.54,15-14.42,8.2.12,14.23,6.4,14.17,14.78s-6.41,14.55-15,14.42C469.36,789.21,463.38,783,463.43,774.56Z"/><path d="M510.83,789.34c-8.51-.05-14.55-6.34-14.43-15,.12-8.24,6.34-14.23,14.75-14.19s14.58,6.39,14.45,15C525.47,783.35,519.2,789.39,510.83,789.34Z"/><path d="M840.89,760.14a14.16,14.16,0,0,1,14.39,14.56c0,8.52-6.25,14.7-14.83,14.64s-14.51-6.38-14.37-15.06C826.21,766.05,832.46,760.09,840.89,760.14Z"/><path d="M859.05,774.55c.05-8.5,6.35-14.53,15-14.41,8.21.13,14.23,6.41,14.18,14.79s-6.42,14.54-15,14.41C865,789.21,859,783,859.05,774.55Z"/><path d="M892,774.46c.08-8.48,6.41-14.47,15.12-14.32,8.17.15,14.16,6.48,14.07,14.88s-6.48,14.48-15.14,14.32C897.88,789.18,891.93,782.89,892,774.46Z"/><path d="M610.3,1.89c8.22.11,14.25,6.38,14.2,14.75s-6.39,14.56-15,14.44c-8.43-.12-14.39-6.53-14.18-15.25C595.5,7.68,601.86,1.77,610.3,1.89Z"/><path d="M346.19,793.11a14.15,14.15,0,0,1,14.57,14.38c.07,8.57-6.12,14.83-14.64,14.82s-14.64-6.25-14.56-14.88C331.65,799.15,337.82,793.1,346.19,793.11Z"/><path d="M397.5,807.51c.06-8.5,6.36-14.53,15-14.4,8.2.13,14.23,6.42,14.17,14.79s-6.43,14.54-15.06,14.41C403.41,822.17,397.44,815.93,397.5,807.51Z"/><path d="M445.05,793.11c8.53,0,14.69,6.24,14.61,14.84a14.19,14.19,0,0,1-14.59,14.36c-8.56,0-14.67-6.22-14.6-14.84C430.53,799.19,436.7,793.12,445.05,793.11Z"/><path d="M496.4,807.42c.09-8.48,6.43-14.47,15.13-14.31,8.17.15,14.16,6.49,14.07,14.89s-6.49,14.47-15.15,14.31C502.27,822.15,496.32,815.84,496.4,807.42Z"/><path d="M544.2,793.11a14.15,14.15,0,0,1,14.37,14.59c0,8.51-6.27,14.68-14.86,14.61s-14.49-6.4-14.34-15.09C529.51,799,535.77,793.05,544.2,793.11Z"/><path d="M562.34,807.47c.07-8.49,6.39-14.5,15.08-14.36,8.18.14,14.19,6.46,14.12,14.84s-6.46,14.51-15.11,14.36C568.22,822.16,562.27,815.89,562.34,807.47Z"/><path d="M939.31,822.31c-8.48-.08-14.48-6.41-14.33-15.12.15-8.2,6.43-14.15,14.86-14.08s14.51,6.46,14.34,15.11C954,816.38,947.68,822.39,939.31,822.31Z"/><path d="M279.83,855.27c-8.43-.11-14.4-6.51-14.2-15.23.18-8.14,6.54-14.07,15-14,8.22.11,14.27,6.37,14.23,14.73S288.45,855.39,279.83,855.27Z"/><path d="M298.6,840.44c.06-8.48,6.39-14.5,15.07-14.36,8.19.14,14.2,6.45,14.12,14.83s-6.45,14.51-15.09,14.36C304.48,855.13,298.53,848.87,298.6,840.44Z"/><path d="M345.91,855.27c-8.48-.07-14.5-6.39-14.35-15.09.15-8.21,6.41-14.17,14.84-14.1s14.52,6.44,14.36,15.09C360.61,849.33,354.28,855.35,345.91,855.27Z"/><path d="M411.79,855.27c-8.47-.09-14.46-6.44-14.29-15.14.16-8.19,6.46-14.13,14.89-14s14.48,6.48,14.31,15.14C426.53,849.37,420.16,855.36,411.79,855.27Z"/><path d="M444.75,855.27c-8.46-.09-14.45-6.44-14.28-15.14.16-8.19,6.46-14.13,14.89-14s14.48,6.48,14.3,15.14C459.5,849.37,453.13,855.36,444.75,855.27Z"/><path d="M562.34,840.49c0-8.5,6.34-14.54,15-14.41,8.21.12,14.23,6.4,14.18,14.78s-6.42,14.55-15,14.41C568.26,855.15,562.29,848.91,562.34,840.49Z"/><path d="M727.18,840.46c.06-8.49,6.37-14.52,15.06-14.38,8.18.13,14.2,6.43,14.13,14.81s-6.44,14.53-15.07,14.38C733.07,855.14,727.11,848.88,727.18,840.46Z"/><path d="M774.6,855.27c-8.52,0-14.57-6.31-14.46-15,.12-8.25,6.33-14.25,14.73-14.21s14.6,6.36,14.47,15C789.22,849.27,783,855.32,774.6,855.27Z"/><path d="M807.53,855.27c-8.5,0-14.54-6.34-14.42-15,.12-8.24,6.35-14.23,14.76-14.18s14.57,6.39,14.44,15C822.18,849.3,815.9,855.32,807.53,855.27Z"/><path d="M840.68,826.08a14.16,14.16,0,0,1,14.6,14.35c.07,8.58-6.11,14.85-14.62,14.84S826,849,826.08,840.42C826.15,832.14,832.33,826.08,840.68,826.08Z"/><path d="M873.89,826.08a14.16,14.16,0,0,1,14.36,14.6c0,8.5-6.28,14.67-14.86,14.59s-14.49-6.4-14.34-15.09C859.19,832,865.45,826,873.89,826.08Z"/><path d="M346.36,859.05a14.15,14.15,0,0,1,14.4,14.55c0,8.52-6.25,14.71-14.82,14.64s-14.52-6.38-14.38-15.06C331.7,865,337.94,859,346.36,859.05Z"/><path d="M379.46,888.24c-8.65.1-14.9-6-14.93-14.5s6-14.59,14.25-14.69c8.61-.11,14.92,6,15,14.5C393.76,881.88,387.68,888.15,379.46,888.24Z"/><path d="M544.36,859.05c8.21.11,14.25,6.38,14.21,14.74s-6.39,14.57-15,14.45c-8.43-.12-14.39-6.52-14.19-15.25C529.56,864.85,535.92,858.93,544.36,859.05Z"/><path d="M576.56,888.24c-8.44-.11-14.41-6.5-14.22-15.21.18-8.15,6.52-14.09,14.95-14s14.45,6.53,14.24,15.21C591.35,882.37,584.94,888.35,576.56,888.24Z"/><path d="M628.27,873.39c.08-8.48,6.4-14.49,15.1-14.34,8.18.14,14.18,6.46,14.1,14.85s-6.46,14.5-15.11,14.34C634.15,888.09,628.2,881.82,628.27,873.39Z"/><path d="M793.11,873.45c.06-8.5,6.35-14.53,15-14.4,8.2.12,14.23,6.4,14.17,14.78s-6.42,14.55-15,14.41C799,888.11,793.06,881.87,793.11,873.45Z"/><path d="M840.58,888.24c-8.53,0-14.6-6.29-14.5-14.94.1-8.26,6.3-14.28,14.68-14.25s14.63,6.33,14.52,14.93C855.17,882.21,848.92,888.27,840.58,888.24Z"/><path d="M859.05,873.37c.08-8.48,6.41-14.48,15.11-14.32,8.18.15,14.17,6.48,14.09,14.87s-6.49,14.48-15.14,14.32C864.92,888.09,859,881.79,859.05,873.37Z"/><path d="M925,873.45c.06-8.5,6.36-14.53,15-14.4,8.2.12,14.22,6.41,14.16,14.79s-6.42,14.54-15,14.4C930.9,888.11,924.93,881.87,925,873.45Z"/><path d="M265.63,906.4c.06-8.49,6.37-14.52,15.05-14.38,8.19.12,14.21,6.42,14.15,14.8s-6.44,14.53-15.07,14.39C271.53,921.07,265.57,914.82,265.63,906.4Z"/><path d="M430.47,906.26c.1-8.45,6.47-14.42,15.19-14.24,8.15.16,14.11,6.52,14,14.94s-6.53,14.44-15.2,14.25C436.3,921,430.36,914.69,430.47,906.26Z"/><path d="M463.43,906.36c.08-8.48,6.4-14.49,15.1-14.34,8.18.14,14.18,6.46,14.1,14.84s-6.46,14.5-15.11,14.35C469.31,921.06,463.36,914.78,463.43,906.36Z"/><path d="M577,892a14.6,14.6,0,1,1-.23,29.2c-8.52,0-14.58-6.3-14.47-15C562.44,898,568.65,892,577,892Z"/><path d="M595.31,906.35c.07-8.48,6.4-14.49,15.1-14.33,8.17.14,14.17,6.46,14.09,14.85s-6.47,14.5-15.12,14.34C601.18,921.06,595.23,914.78,595.31,906.35Z"/><path d="M628.27,906.3c.1-8.47,6.45-14.45,15.16-14.28,8.16.15,14.14,6.5,14,14.9s-6.5,14.46-15.17,14.29C634.13,921,628.18,914.72,628.27,906.3Z"/><path d="M661.24,906.35c.08-8.48,6.4-14.49,15.1-14.33,8.18.14,14.18,6.46,14.1,14.85s-6.47,14.5-15.12,14.34C667.12,921.06,661.17,914.78,661.24,906.35Z"/><path d="M709,892a14.14,14.14,0,0,1,14.37,14.58c0,8.51-6.28,14.68-14.86,14.61s-14.49-6.4-14.34-15.09C694.35,897.9,700.61,892,709,892Z"/><path d="M807.42,921.21c-8.48-.09-14.47-6.43-14.31-15.13.16-8.2,6.45-14.14,14.88-14.06s14.49,6.47,14.32,15.12C822.15,915.29,815.79,921.29,807.42,921.21Z"/><path d="M892,906.42c.05-8.5,6.35-14.53,15-14.4,8.2.12,14.22,6.4,14.16,14.78s-6.42,14.54-15.05,14.41C897.93,921.08,892,914.84,892,906.42Z"/><path d="M279.94,954.18c-8.48-.09-14.47-6.42-14.31-15.12.15-8.21,6.43-14.15,14.86-14.08s14.5,6.47,14.33,15.12C294.67,948.25,288.32,954.26,279.94,954.18Z"/><path d="M412.12,925a14.17,14.17,0,0,1,14.58,14.38c.06,8.57-6.13,14.83-14.65,14.82s-14.64-6.25-14.55-14.88C397.58,931,403.75,925,412.12,925Z"/><path d="M543.76,954.18c-8.49-.06-14.52-6.36-14.39-15,.13-8.24,6.36-14.21,14.78-14.16s14.56,6.41,14.42,15C558.43,948.22,552.14,954.24,543.76,954.18Z"/><path d="M577.35,925c8.21.12,14.24,6.39,14.19,14.77s-6.41,14.56-15,14.43c-8.44-.13-14.38-6.53-14.17-15.27C562.53,930.78,568.9,924.86,577.35,925Z"/><path d="M675.6,954.18c-8.48-.07-14.5-6.39-14.36-15.08.14-8.22,6.39-14.18,14.82-14.12s14.53,6.44,14.38,15.08C690.29,948.23,684,954.25,675.6,954.18Z"/><path d="M694.21,939.34c.07-8.49,6.39-14.5,15.08-14.36,8.18.14,14.19,6.46,14.12,14.84S717,954.33,708.3,954.18C700.09,954,694.14,947.76,694.21,939.34Z"/><path d="M774.46,954.18c-8.48-.09-14.47-6.42-14.31-15.12.15-8.21,6.43-14.15,14.86-14.08s14.5,6.47,14.33,15.12C789.18,948.25,782.83,954.26,774.46,954.18Z"/><path d="M840.52,954.18c-8.51,0-14.56-6.33-14.44-15,.12-8.25,6.34-14.24,14.74-14.2s14.59,6.38,14.46,15C855.15,948.19,848.88,954.22,840.52,954.18Z"/><path d="M906.26,954.18c-8.45-.11-14.43-6.48-14.24-15.2.17-8.15,6.51-14.09,14.93-14s14.46,6.53,14.26,15.19C921,948.3,914.64,954.28,906.26,954.18Z"/><path d="M114.88,164.82c-7.81,0-15.63.06-23.45,0C76.6,164.64,66.06,154.09,66,139.22q-.14-23.94,0-47.9C66.05,76.8,76.66,66.1,91.18,66q24.19-.2,48.4,0c14.51.12,25.12,10.8,25.22,25.33q.15,24,0,47.91c-.09,14.86-10.64,25.43-25.47,25.58C131.19,164.89,123,164.82,114.88,164.82Z"/><path d="M791.25,115.39c0-8.15-.08-16.3,0-24.45.16-14,10.67-24.76,24.58-24.93,16.46-.21,32.93-.18,49.4,0A24.69,24.69,0,0,1,890.07,90.7q.24,24.69,0,49.4c-.15,13.94-10.81,24.53-24.82,24.67q-24.45.25-48.9,0c-14.29-.12-24.86-10.72-25.07-24.94C791.15,131.69,791.25,123.54,791.25,115.39Z"/><path d="M66,840.29c0-8-.08-16,0-23.95.16-14.18,10.77-24.93,25-25.06q24.45-.22,48.9,0c14.21.14,24.83,10.86,24.94,25.1q.18,24.2,0,48.4c-.1,14.55-10.69,25.18-25.23,25.3q-24.19.18-48.4,0c-14.53-.12-25-10.77-25.19-25.34C65.89,856.59,66,848.44,66,840.29Z"/><path d="M725.31,741.88c0-15.83.74-16.57,16.57-16.57,15.51,0,16.36.85,16.36,16.29,0,15.76-.87,16.64-16.58,16.64C726.26,758.24,725.31,757.28,725.31,741.88Z"/></g></g></svg>